<svg viewBox="0 0 12.1 17" class="svg-icon s-mr-05" xmlns="http://www.w3.org/2000/svg"><path d="M6,17C6,17,6,17,6,17l-0.1,0c-0.2,0-0.3-0.1-0.4-0.2c-0.2-0.1-0.3-0.3-0.3-0.5l-0.7-4.2H1.1c-0.3,0-0.6-0.1-0.8-0.3C0.1,11.5,0,11.3,0,11c0-0.9,0.3-1.8,0.9-2.4C1.2,8,1.8,7.6,2.5,7.4V3.4C2.2,3.3,1.9,3.2,1.7,2.9C1.4,2.6,1.2,2.2,1.2,1.7c0-0.5,0.2-0.9,0.5-1.2C2.1,0.2,2.5,0,3,0h6.1c0,0,0,0,0,0c0.5,0,0.9,0.2,1.2,0.5c0.3,0.3,0.5,0.8,0.5,1.2c0,0.5-0.2,0.9-0.5,1.2c-0.2,0.2-0.4,0.4-0.7,0.4v4.1c0.7,0.1,1.2,0.5,1.6,1.1c0.5,0.7,0.8,1.5,0.8,2.4c0,0.3-0.1,0.6-0.3,0.8c-0.2,0.2-0.5,0.3-0.8,0.3c0,0,0,0,0,0H7.3l-0.4,4.2c0,0.2-0.1,0.4-0.2,0.5C6.5,16.9,6.3,17,6,17z M6.2,16.2L6.2,16.2C6.2,16.2,6.2,16.2,6.2,16.2z M1,11l0.1,0.1h4.3L6,14.7l0.4-3.7l4.7,0c0-0.7-0.2-1.4-0.6-1.9c-0.3-0.5-0.8-0.7-1.3-0.8l-0.5,0V2.5l0.5,0c0.2,0,0.4-0.1,0.5-0.2c0.1-0.1,0.2-0.3,0.2-0.5c0-0.2-0.1-0.4-0.2-0.5C9.5,1.1,9.3,1,9.1,1H3C2.8,1,2.6,1.1,2.5,1.2C2.3,1.4,2.2,1.5,2.2,1.7c0,0.2,0.1,0.4,0.2,0.5C2.6,2.4,2.8,2.4,3,2.5l0.5,0v5.9L3,8.4c-0.5,0-1,0.3-1.3,0.7C1.2,9.7,1,10.3,1,11L1,11z"></path></svg>