<?xml version="1.0" ?><svg id="Layer_1" style="enable-background:new 0 0 60 80;" version="1.1" viewBox="0 0 60 80" xml:space="preserve" xmlns="http://www.w3.org/2000/svg" xmlns:xlink="http://www.w3.org/1999/xlink"><title/><g id="Layer_2"><g id="Layer_3"><path d="M43.8,24.8v-5.5c-0.2-7.6-6.6-13.7-14.2-13.5C22.3,6,16.4,11.9,16.2,19.3v5.5h-11v49.8h49.8V24.8H43.8z M19.1,19.3    c0.2-6,5.2-10.7,11.2-10.5c5.7,0.2,10.3,4.8,10.5,10.5v5.5H19.1V19.3z M51.9,71.6H8.1V27.8h43.8V71.6z"/><path d="M29.7,49.7c-2.8,0-5.1,2.3-5.1,5.1c0,2.2,1.4,4.1,3.5,4.8v5.6c0,0.9,0.7,1.6,1.6,1.6s1.6-0.7,1.6-1.6l0,0v-5.6    c2.7-0.9,4.1-3.8,3.2-6.4C33.8,51.1,31.9,49.7,29.7,49.7L29.7,49.7z"/><polygon points="31.4,36.1 43.6,36.1 43.6,48.8 46.6,48.8 46.6,33.1 31.4,33.1   "/></g></g></svg>