<svg id="Capa_1" enable-background="new 0 0 512 512" height="512" viewBox="0 0 512 512" width="512" xmlns="http://www.w3.org/2000/svg"><path d="m467 30.999h-422c-24.813 0-45 20.187-45 45v240c0 24.813 20.187 45 45 45h106v105c0 13.391 16.237 19.978 25.606 10.606l115.607-115.606h174.787c24.813 0 45-20.187 45-45v-240c0-24.813-20.187-45-45-45zm15 285c0 8.271-6.729 15-15 15h-181c-3.978 0-7.793 1.581-10.606 4.394l-94.394 94.393v-83.787c0-8.284-6.716-15-15-15h-121c-8.271 0-15-6.729-15-15v-240c0-8.271 6.729-15 15-15h422c8.271 0 15 6.729 15 15z"/><path d="m106 150.999h120c8.284 0 15-6.716 15-15s-6.716-15-15-15h-120c-8.284 0-15 6.716-15 15s6.716 15 15 15z"/><path d="m406 180.999h-300c-8.284 0-15 6.716-15 15s6.716 15 15 15h300c8.284 0 15-6.716 15-15s-6.716-15-15-15z"/><path d="m406 240.999h-300c-8.284 0-15 6.716-15 15s6.716 15 15 15h300c8.284 0 15-6.716 15-15s-6.716-15-15-15z"/><path d="m406 120.999h-120c-8.284 0-15 6.716-15 15s6.716 15 15 15h120c8.284 0 15-6.716 15-15s-6.716-15-15-15z"/></svg>